<svg xmlns="http://www.w3.org/2000/svg" xmlns:xlink="http://www.w3.org/1999/xlink" x="0" y="0" width="701.3333129882812" height="301.3333435058594" style="
        width:701.3333129882812px;
        height:301.3333435058594px;
        background: #FFF;
        fill: none;
">
        <svg xmlns="http://www.w3.org/2000/svg"/>
        
        <svg xmlns="http://www.w3.org/2000/svg" class="role-diagram-draw-area" style="overflow: visible;"><g class="shapes-region" style="stroke: black; fill: none;"><g class="arrow-line"><path class="connection real" stroke-dasharray="" d="  M405.33,106 L261,210" style="stroke: rgb(0, 0, 0); stroke-width: 1px; fill: none; fill-opacity: 1;"/></g><g class="arrow-line"><path class="connection real" stroke-dasharray="" d="  M341.33,153 L341.33,203" style="stroke: rgb(0, 0, 0); stroke-width: 1px; fill: none; fill-opacity: 1;"/><g stroke="#000" transform="matrix(-1.8369701987210297e-16,-1,1,-1.8369701987210297e-16,341.33331298828125,204.99999999999994)" style="stroke: rgb(0, 0, 0); stroke-width: 1px;"><path d=" M10.93,-3.29 Q4.96,-0.45 0,0 Q4.96,0.45 10.93,3.29"/></g></g><g class="arrow-line"><path class="connection real" stroke-dasharray="" d="  M261,210 L261.32,156" style="stroke: rgb(0, 0, 0); stroke-width: 1px; fill: none; fill-opacity: 1;"/><g stroke="#000" transform="matrix(-0.005934084629718061,0.9999823931648033,-0.9999823931648033,-0.005934084629718061,261.33331298828125,154)" style="stroke: rgb(0, 0, 0); stroke-width: 1px;"><path d=" M10.93,-3.29 Q4.96,-0.45 0,0 Q4.96,0.45 10.93,3.29"/></g></g><g class="arrow-line"><path class="connection real" stroke-dasharray="" d="  M261,210 L208.33,210" style="stroke: rgb(0, 0, 0); stroke-width: 1px; fill: none; fill-opacity: 1;"/><g stroke="#000" transform="matrix(1,-2.4492935982947064e-16,2.4492935982947064e-16,1,206.33331298828125,210)" style="stroke: rgb(0, 0, 0); stroke-width: 1px;"><path d=" M10.93,-3.29 Q4.96,-0.45 0,0 Q4.96,0.45 10.93,3.29"/></g></g><g class="arrow-line"><path class="connection real" stroke-dasharray="" d="  M115.33,211 L594.33,206" style="stroke: rgb(0, 0, 0); stroke-width: 1px; fill: none; fill-opacity: 1;"/></g><g class="arrow-line"><path class="connection real" stroke-dasharray="" d="  M422.33,120 C434.09,103.34 423.76,79.96 397.93,87.5" style="stroke: rgb(0, 0, 0); stroke-width: 1px; fill: none; fill-opacity: 1;"/><g stroke="#000" transform="matrix(0.948710608132914,-0.3161458239738056,0.3161458239738056,0.948710608132914,396.33331298828125,87.99999999999999)" style="stroke: rgb(0, 0, 0); stroke-width: 1px;"><path d=" M10.93,-3.29 Q4.96,-0.45 0,0 Q4.96,0.45 10.93,3.29"/></g></g><g/></g><g/><g/><g/></svg>
        <svg xmlns="http://www.w3.org/2000/svg" xmlns:xlink="http://www.w3.org/1999/xlink" width="700" height="300" style="width:700px;height:300px;font-family:Asana-Math, Asana;background:#FFF;"><g><g><g><g><g><g><g transform="matrix(1,0,0,1,428.66668701171875,92.20001220703125)"><path transform="matrix(0.017,0,0,-0.017,0,0)" d="M394 -12C554 -12 671 181 673 325C674 363 660 458 607 458C592 458 562 441 548 434L548 423C593 392 607 338 606 284C605 189 542 17 425 17C366 17 362 73 363 119C365 185 380 261 403 324L393 324C372 317 350 309 328 304C323 217 294 16 174 16C111 16 100 81 100 129C102 278 168 388 306 443L306 463C152 428 40 300 25 137C9 -29 213 -49 295 47C316 3 344 -12 394 -12Z" stroke="rgb(0,0,0)" stroke-opacity="1" stroke-width="8" fill="rgb(0,0,0)" fill-opacity="1"></path></g></g></g></g></g></g></g><g><g><g><g><g><g><g transform="matrix(1,0,0,1,291.66668701171875,202.20001220703125)"><path transform="matrix(0.017,0,0,-0.017,0,0)" d="M237 -16C473 -16 572 316 576 504C578 618 546 702 419 702C159 702 72 412 69 199C67 80 101 -16 237 -16ZM401 676C536 676 506 491 485 381L169 381C194 485 272 676 401 676ZM253 13C102 13 147 261 163 349L479 349C454 237 396 13 253 13Z" stroke="rgb(0,0,0)" stroke-opacity="1" stroke-width="8" fill="rgb(0,0,0)" fill-opacity="1"></path></g></g></g></g></g></g></g><g><g><g><g><g><g><g transform="matrix(1,0,0,1,356.66668701171875,192.20001220703125)"><path transform="matrix(0.017,0,0,-0.017,0,0)" d="M166 420C187 420 203 421 229 424C118 304 76 221 76 121C76 44 122 -11 186 -11C324 -11 477 236 477 384C477 441 451 482 415 482C402 482 390 478 382 470L332 423L343 404C352 410 361 413 370 413C397 413 413 390 413 350C413 202 316 39 228 39C179 39 148 81 148 146C148 251 187 342 285 464L275 482C255 473 242 470 214 470C186 470 144 472 115 475L103 476C97 477 92 477 91 477C79 477 70 475 59 470C45 443 34 407 21 352L43 352L60 394C67 411 87 422 111 422C144 422 128 420 166 420Z" stroke="rgb(0,0,0)" stroke-opacity="1" stroke-width="8" fill="rgb(0,0,0)" fill-opacity="1"></path></g></g></g></g></g></g></g><g><g><g><g><g><g><g transform="matrix(1,0,0,1,242.66668701171875,151.20001220703125)"><path transform="matrix(0.017,0,0,-0.017,0,0)" d="M103 664L150 662C174 661 185 653 185 636C185 629 179 576 176 559L104 125C89 36 86 31 46 28L10 25L7 -3L39 -3L133 0L227 -3L259 -3L262 25L210 28C184 30 174 37 174 57C174 63 175 74 176 78L265 613C272 652 277 657 316 661L351 664L354 692L248 689C231 689 213 689 170 690L106 692Z" stroke="rgb(0,0,0)" stroke-opacity="1" stroke-width="8" fill="rgb(0,0,0)" fill-opacity="1"></path></g></g><g><g><g><g><g transform="matrix(1,0,0,1,248.8333740234375,154.66666259765626)"><path transform="matrix(0.0119,0,0,-0.0119,0,0)" d="M418 -3L418 27L366 30C311 33 301 44 301 96L301 700L60 598L67 548L217 614L217 96C217 44 206 33 152 30L96 27L96 -3C250 0 250 0 261 0C292 0 402 -3 418 -3Z" stroke="rgb(0,0,0)" stroke-opacity="1" stroke-width="8" fill="rgb(0,0,0)" fill-opacity="1"></path></g></g></g></g></g></g></g></g></g></g><g><g><g><g><g><g><g transform="matrix(1,0,0,1,197.66668701171875,196.20001220703125)"><path transform="matrix(0.017,0,0,-0.017,0,0)" d="M103 664L150 662C174 661 185 653 185 636C185 629 179 576 176 559L104 125C89 36 86 31 46 28L10 25L7 -3L39 -3L133 0L227 -3L259 -3L262 25L210 28C184 30 174 37 174 57C174 63 175 74 176 78L265 613C272 652 277 657 316 661L351 664L354 692L248 689C231 689 213 689 170 690L106 692Z" stroke="rgb(0,0,0)" stroke-opacity="1" stroke-width="8" fill="rgb(0,0,0)" fill-opacity="1"></path></g></g><g><g><g><g><g transform="matrix(1,0,0,1,203.8333740234375,199.66666259765626)"><path transform="matrix(0.0119,0,0,-0.0119,0,0)" d="M16 23L16 -3C203 -3 203 0 239 0C275 0 275 -3 468 -3L468 82C353 77 307 81 122 77L304 270C401 373 431 428 431 503C431 618 353 689 226 689C154 689 105 669 56 619L39 483L68 483L81 529C97 587 133 612 200 612C286 612 341 558 341 473C341 398 299 324 186 204Z" stroke="rgb(0,0,0)" stroke-opacity="1" stroke-width="8" fill="rgb(0,0,0)" fill-opacity="1"></path></g></g></g></g></g></g></g></g></g></g><g><g><g><g><g><g><g transform="matrix(1,0,0,1,316.66668701171875,145.20001220703125)"><path transform="matrix(0.017,0,0,-0.017,0,0)" d="M349 664L352 692L238 689C222 689 204 689 161 690L97 692L94 664L141 662C165 661 176 653 176 635L81 55C77 37 65 30 21 23L16 -3L57 -2C88 -1 150 0 170 0C170 0 467 -1 467 -1C467 -1 500 0 500 0C499 25 510 103 523 165L492 165L475 103C466 71 457 54 448 49C435 44 371 39 304 39C255 39 228 40 162 46C165 64 256 605 256 613C263 651 270 658 307 661Z" stroke="rgb(0,0,0)" stroke-opacity="1" stroke-width="8" fill="rgb(0,0,0)" fill-opacity="1"></path></g></g></g></g></g></g></g></svg>
</svg>
